<svg xmlns="http://www.w3.org/2000/svg" width="1200" height="700" viewBox="0 0 1200 700">
  <rect width="1200" height="700" fill="#EEF2F6"/>
  <rect x="0" y="0" width="1200" height="70" fill="#F8FAFC" stroke="#CBD5E1"/>
  <text x="40" y="44" font-family="serif" font-size="26" fill="#0F172A">LiveNews</text>
  <text x="160" y="44" font-family="sans-serif" font-size="14" fill="#64748B">Breaking Grid (Daylight)</text>

  <rect x="20" y="100" width="160" height="560" rx="12" fill="#E8EEF4" stroke="#CBD5E1"/>
  <text x="40" y="130" font-family="sans-serif" font-size="12" fill="#0F172A">Sections</text>
  <rect x="40" y="150" width="120" height="8" fill="#EF4444"/>
  <rect x="40" y="170" width="120" height="8" fill="#CBD5E1"/>
  <rect x="40" y="190" width="120" height="8" fill="#CBD5E1"/>

  <rect x="200" y="100" width="640" height="260" rx="14" fill="#FFFFFF" stroke="#06B6D4"/>
  <text x="230" y="140" font-family="serif" font-size="30" fill="#0F172A">Breaking: Major Update</text>
  <rect x="230" y="160" width="460" height="10" fill="#E2E8F0"/>
  <rect x="230" y="180" width="520" height="10" fill="#E2E8F0"/>
  <rect x="230" y="200" width="420" height="10" fill="#E2E8F0"/>
  <rect x="230" y="230" width="140" height="30" rx="6" fill="#EF4444"/>
  <text x="252" y="251" font-family="sans-serif" font-size="12" fill="#FFFFFF">LIVE</text>

  <rect x="200" y="380" width="640" height="280" rx="14" fill="#FFFFFF" stroke="#CBD5E1"/>
  <rect x="230" y="410" width="580" height="50" rx="8" fill="#F8FAFC" stroke="#CBD5E1"/>
  <rect x="230" y="470" width="580" height="50" rx="8" fill="#F8FAFC" stroke="#CBD5E1"/>
  <rect x="230" y="530" width="580" height="50" rx="8" fill="#F8FAFC" stroke="#CBD5E1"/>

  <rect x="860" y="100" width="320" height="560" rx="12" fill="#FFFFFF" stroke="#CBD5E1"/>
  <text x="890" y="130" font-family="sans-serif" font-size="12" fill="#0F172A">Right Rail</text>
  <rect x="890" y="150" width="260" height="90" rx="10" fill="#F8FAFC" stroke="#EF4444"/>
  <text x="910" y="205" font-family="sans-serif" font-size="12" fill="#0F172A">Sponsor</text>
  <rect x="890" y="260" width="260" height="140" rx="10" fill="#F8FAFC" stroke="#06B6D4"/>
  <text x="910" y="310" font-family="sans-serif" font-size="12" fill="#0F172A">YouTube Radar</text>
  <rect x="890" y="420" width="260" height="140" rx="10" fill="#F8FAFC" stroke="#CBD5E1"/>
  <text x="910" y="470" font-family="sans-serif" font-size="12" fill="#0F172A">Community</text>

  <text x="40" y="665" font-family="sans-serif" font-size="14" fill="#0F172A">Palette:</text>
  <rect x="120" y="650" width="26" height="26" fill="#EEF2F6" stroke="#CBD5E1"/>
  <rect x="152" y="650" width="26" height="26" fill="#0F172A"/>
  <rect x="184" y="650" width="26" height="26" fill="#EF4444"/>
  <rect x="216" y="650" width="26" height="26" fill="#06B6D4"/>
</svg>
