<svg xmlns="http://www.w3.org/2000/svg" width="1200" height="700" viewBox="0 0 1200 700">
  <rect width="1200" height="700" fill="#F6F0E6"/>
  <rect x="0" y="0" width="1200" height="70" fill="#FBF7F0" stroke="#E5DCCB"/>
  <text x="40" y="44" font-family="serif" font-size="26" fill="#2B2B2B">LiveNews</text>
  <text x="160" y="44" font-family="sans-serif" font-size="14" fill="#6B635A">Breaking Grid (Warm Ivory)</text>

  <rect x="20" y="100" width="160" height="560" rx="12" fill="#EFE5D8" stroke="#E5DCCB"/>
  <text x="40" y="130" font-family="sans-serif" font-size="12" fill="#2B2B2B">Sections</text>
  <rect x="40" y="150" width="120" height="8" fill="#DC2626"/>
  <rect x="40" y="170" width="120" height="8" fill="#DCCFC1"/>
  <rect x="40" y="190" width="120" height="8" fill="#DCCFC1"/>

  <rect x="200" y="100" width="640" height="260" rx="14" fill="#FFFFFF" stroke="#0F766E"/>
  <text x="230" y="140" font-family="serif" font-size="30" fill="#2B2B2B">Breaking: Major Update</text>
  <rect x="230" y="160" width="460" height="10" fill="#E8DED0"/>
  <rect x="230" y="180" width="520" height="10" fill="#E8DED0"/>
  <rect x="230" y="200" width="420" height="10" fill="#E8DED0"/>
  <rect x="230" y="230" width="140" height="30" rx="6" fill="#DC2626"/>
  <text x="252" y="251" font-family="sans-serif" font-size="12" fill="#FFFFFF">LIVE</text>

  <rect x="200" y="380" width="640" height="280" rx="14" fill="#FFFFFF" stroke="#E5DCCB"/>
  <rect x="230" y="410" width="580" height="50" rx="8" fill="#FDF9F3" stroke="#E5DCCB"/>
  <rect x="230" y="470" width="580" height="50" rx="8" fill="#FDF9F3" stroke="#E5DCCB"/>
  <rect x="230" y="530" width="580" height="50" rx="8" fill="#FDF9F3" stroke="#E5DCCB"/>

  <rect x="860" y="100" width="320" height="560" rx="12" fill="#FFFFFF" stroke="#E5DCCB"/>
  <text x="890" y="130" font-family="sans-serif" font-size="12" fill="#2B2B2B">Right Rail</text>
  <rect x="890" y="150" width="260" height="90" rx="10" fill="#FDF9F3" stroke="#DC2626"/>
  <text x="910" y="205" font-family="sans-serif" font-size="12" fill="#2B2B2B">Sponsor</text>
  <rect x="890" y="260" width="260" height="140" rx="10" fill="#FDF9F3" stroke="#0F766E"/>
  <text x="910" y="310" font-family="sans-serif" font-size="12" fill="#2B2B2B">YouTube Radar</text>
  <rect x="890" y="420" width="260" height="140" rx="10" fill="#FDF9F3" stroke="#DCCFC1"/>
  <text x="910" y="470" font-family="sans-serif" font-size="12" fill="#2B2B2B">Community</text>

  <text x="40" y="665" font-family="sans-serif" font-size="14" fill="#2B2B2B">Palette:</text>
  <rect x="120" y="650" width="26" height="26" fill="#F6F0E6" stroke="#E5DCCB"/>
  <rect x="152" y="650" width="26" height="26" fill="#2B2B2B"/>
  <rect x="184" y="650" width="26" height="26" fill="#DC2626"/>
  <rect x="216" y="650" width="26" height="26" fill="#0F766E"/>
</svg>
