<svg xmlns="http://www.w3.org/2000/svg" width="1200" height="700" viewBox="0 0 1200 700">
  <rect width="1200" height="700" fill="#0B1220"/>
  <rect x="0" y="0" width="1200" height="70" fill="#0F172A" stroke="#1F2937"/>
  <text x="40" y="44" font-family="serif" font-size="26" fill="#E2E8F0">LiveNews</text>
  <text x="160" y="44" font-family="sans-serif" font-size="14" fill="#94A3B8">Breaking Grid (Night)</text>

  <rect x="20" y="100" width="160" height="560" rx="12" fill="#111827" stroke="#1F2937"/>
  <text x="40" y="130" font-family="sans-serif" font-size="12" fill="#E2E8F0">Sections</text>
  <rect x="40" y="150" width="120" height="8" fill="#EF4444"/>
  <rect x="40" y="170" width="120" height="8" fill="#334155"/>
  <rect x="40" y="190" width="120" height="8" fill="#334155"/>

  <rect x="200" y="100" width="640" height="260" rx="14" fill="#0F172A" stroke="#22D3EE"/>
  <text x="230" y="140" font-family="serif" font-size="30" fill="#E2E8F0">Breaking: Major Update</text>
  <rect x="230" y="160" width="460" height="10" fill="#334155"/>
  <rect x="230" y="180" width="520" height="10" fill="#334155"/>
  <rect x="230" y="200" width="420" height="10" fill="#334155"/>
  <rect x="230" y="230" width="140" height="30" rx="6" fill="#EF4444"/>
  <text x="252" y="251" font-family="sans-serif" font-size="12" fill="#0B1220">LIVE</text>

  <rect x="200" y="380" width="640" height="280" rx="14" fill="#0F172A" stroke="#1F2937"/>
  <rect x="230" y="410" width="580" height="50" rx="8" fill="#111827" stroke="#1F2937"/>
  <rect x="230" y="470" width="580" height="50" rx="8" fill="#111827" stroke="#1F2937"/>
  <rect x="230" y="530" width="580" height="50" rx="8" fill="#111827" stroke="#1F2937"/>

  <rect x="860" y="100" width="320" height="560" rx="12" fill="#0F172A" stroke="#1F2937"/>
  <text x="890" y="130" font-family="sans-serif" font-size="12" fill="#E2E8F0">Right Rail</text>
  <rect x="890" y="150" width="260" height="90" rx="10" fill="#111827" stroke="#EF4444"/>
  <text x="910" y="205" font-family="sans-serif" font-size="12" fill="#E2E8F0">Sponsor</text>
  <rect x="890" y="260" width="260" height="140" rx="10" fill="#111827" stroke="#22D3EE"/>
  <text x="910" y="310" font-family="sans-serif" font-size="12" fill="#E2E8F0">YouTube Radar</text>
  <rect x="890" y="420" width="260" height="140" rx="10" fill="#111827" stroke="#334155"/>
  <text x="910" y="470" font-family="sans-serif" font-size="12" fill="#E2E8F0">Community</text>

  <text x="40" y="665" font-family="sans-serif" font-size="14" fill="#E2E8F0">Palette:</text>
  <rect x="120" y="650" width="26" height="26" fill="#0B1220" stroke="#1F2937"/>
  <rect x="152" y="650" width="26" height="26" fill="#0F172A"/>
  <rect x="184" y="650" width="26" height="26" fill="#EF4444"/>
  <rect x="216" y="650" width="26" height="26" fill="#22D3EE"/>
</svg>
