<svg xmlns="http://www.w3.org/2000/svg" width="1200" height="700" viewBox="0 0 1200 700">
  <rect width="1200" height="700" fill="#E2E8F0"/>
  <rect x="0" y="0" width="1200" height="70" fill="#0F172A"/>
  <text x="40" y="44" font-family="serif" font-size="26" fill="#E2E8F0">LiveNews</text>
  <text x="160" y="44" font-family="sans-serif" font-size="14" fill="#94A3B8">Civic Modern</text>

  <rect x="40" y="110" width="720" height="220" rx="16" fill="#FFFFFF" stroke="#CBD5E1"/>
  <text x="70" y="150" font-family="serif" font-size="28" fill="#0F172A">Top Story: Calm, Trusted Coverage</text>
  <rect x="70" y="170" width="360" height="12" fill="#E2E8F0"/>
  <rect x="70" y="190" width="520" height="12" fill="#E2E8F0"/>
  <rect x="70" y="210" width="460" height="12" fill="#E2E8F0"/>
  <rect x="70" y="240" width="140" height="32" rx="8" fill="#14B8A6"/>
  <text x="88" y="262" font-family="sans-serif" font-size="14" fill="#0F172A">Verified</text>

  <rect x="40" y="360" width="720" height="260" rx="16" fill="#FFFFFF" stroke="#CBD5E1"/>
  <rect x="70" y="390" width="640" height="50" rx="10" fill="#F8FAFC" stroke="#E2E8F0"/>
  <rect x="70" y="450" width="640" height="50" rx="10" fill="#F8FAFC" stroke="#E2E8F0"/>
  <rect x="70" y="510" width="640" height="50" rx="10" fill="#F8FAFC" stroke="#E2E8F0"/>

  <rect x="800" y="110" width="360" height="510" rx="16" fill="#F8FAFC" stroke="#CBD5E1"/>
  <text x="830" y="145" font-family="sans-serif" font-size="16" fill="#0F172A">Right Rail</text>
  <rect x="830" y="165" width="300" height="90" rx="12" fill="#FFFFFF" stroke="#E2E8F0"/>
  <text x="850" y="215" font-family="sans-serif" font-size="13" fill="#0F172A">Sponsored</text>
  <rect x="830" y="270" width="300" height="140" rx="12" fill="#FFFFFF" stroke="#E2E8F0"/>
  <text x="850" y="305" font-family="sans-serif" font-size="13" fill="#0F172A">Local Radar</text>

  <rect x="830" y="430" width="300" height="140" rx="12" fill="#FFFFFF" stroke="#E2E8F0"/>
  <text x="850" y="465" font-family="sans-serif" font-size="13" fill="#0F172A">Community</text>

  <text x="40" y="665" font-family="sans-serif" font-size="14" fill="#0F172A">Palette:</text>
  <rect x="120" y="650" width="26" height="26" fill="#0F172A"/>
  <rect x="152" y="650" width="26" height="26" fill="#E2E8F0" stroke="#CBD5E1"/>
  <rect x="184" y="650" width="26" height="26" fill="#14B8A6"/>
  <rect x="216" y="650" width="26" height="26" fill="#F59E0B"/>
</svg>
