<svg xmlns="http://www.w3.org/2000/svg" width="1200" height="700" viewBox="0 0 1200 700">
  <rect width="1200" height="700" fill="#FDF6E3"/>
  <rect x="0" y="0" width="1200" height="70" fill="#1F2937"/>
  <text x="40" y="44" font-family="serif" font-size="26" fill="#FDF6E3">LiveNews</text>
  <text x="160" y="44" font-family="sans-serif" font-size="14" fill="#D1D5DB">Local Pulse</text>

  <rect x="40" y="110" width="800" height="190" rx="16" fill="#FFFFFF" stroke="#E5E7EB"/>
  <text x="70" y="150" font-family="serif" font-size="28" fill="#1F2937">Local Spotlight: City Hall Updates</text>
  <rect x="70" y="170" width="460" height="12" fill="#E5E7EB"/>
  <rect x="70" y="190" width="520" height="12" fill="#E5E7EB"/>
  <rect x="70" y="210" width="420" height="12" fill="#E5E7EB"/>
  <rect x="70" y="235" width="140" height="32" rx="8" fill="#10B981"/>
  <text x="86" y="257" font-family="sans-serif" font-size="13" fill="#0B0B0B">Local</text>

  <rect x="40" y="330" width="800" height="290" rx="16" fill="#FFFFFF" stroke="#E5E7EB"/>
  <rect x="70" y="360" width="720" height="50" rx="10" fill="#FAFAF9" stroke="#E7E5E4"/>
  <rect x="70" y="420" width="720" height="50" rx="10" fill="#FAFAF9" stroke="#E7E5E4"/>
  <rect x="70" y="480" width="720" height="50" rx="10" fill="#FAFAF9" stroke="#E7E5E4"/>

  <rect x="870" y="110" width="290" height="510" rx="16" fill="#FFF7ED" stroke="#FED7AA"/>
  <text x="900" y="145" font-family="sans-serif" font-size="15" fill="#1F2937">Community + Ads</text>
  <rect x="900" y="165" width="230" height="120" rx="10" fill="#FFFFFF" stroke="#FDBA74"/>
  <text x="920" y="230" font-family="sans-serif" font-size="12" fill="#1F2937">Sponsor</text>
  <rect x="900" y="300" width="230" height="140" rx="10" fill="#FFFFFF" stroke="#A7F3D0"/>
  <text x="920" y="350" font-family="sans-serif" font-size="12" fill="#1F2937">Local Hub</text>
  <rect x="900" y="455" width="230" height="140" rx="10" fill="#FFFFFF" stroke="#FDBA74"/>
  <text x="920" y="505" font-family="sans-serif" font-size="12" fill="#1F2937">Events</text>

  <text x="40" y="665" font-family="sans-serif" font-size="14" fill="#1F2937">Palette:</text>
  <rect x="120" y="650" width="26" height="26" fill="#1F2937"/>
  <rect x="152" y="650" width="26" height="26" fill="#FDF6E3" stroke="#E5E7EB"/>
  <rect x="184" y="650" width="26" height="26" fill="#10B981"/>
  <rect x="216" y="650" width="26" height="26" fill="#F97316"/>
</svg>
